<?xml version="1.0" encoding="utf-8"?>
<!-- Generator: Adobe Illustrator 16.0.0, SVG Export Plug-In . SVG Version: 6.00 Build 0)  -->
<!DOCTYPE svg PUBLIC "-//W3C//DTD SVG 1.1//EN" "http://www.w3.org/Graphics/SVG/1.1/DTD/svg11.dtd">
<svg version="1.1" id="Layer_1" xmlns="http://www.w3.org/2000/svg" xmlns:xlink="http://www.w3.org/1999/xlink" x="0px" y="0px"
	 width="50px" height="50px" viewBox="0 0 50 50" enable-background="new 0 0 50 50" xml:space="preserve">
<g>
	<path d="M0.028,23.09h39.018c-1.562-1.953-4.058-6.947-4.058-8.117c0-0.625,0.473-1.093,1.175-1.093
		c0.545,0,0.778,0.158,1.713,1.328c2.656,3.123,5.463,5.309,10.306,8.117c1.402,0.7,1.79,1.093,1.79,1.56
		c0,0.626-0.154,0.86-1.247,1.48c-6.556,3.905-7.959,5.075-11.315,9.052c-0.468,0.55-0.778,0.703-1.246,0.703
		c-0.702,0-1.175-0.467-1.175-1.17c0-1.247,1.876-4.836,4.058-7.882H0.028V23.09z"/>
</g>
</svg>
