<svg xmlns="http://www.w3.org/2000/svg" viewBox="0 0 226.22 90.93"><defs><style>.cls-1{fill:#231f20;}</style></defs><title>logo</title><g id="Layer_2" data-name="Layer 2"><g id="Grid"><path d="M68.5,60.73c-2.45,2.36-3.5,6-3.5,10.94C65,79.73,70.25,85,77.6,85c5.86,0,8.76-1.67,11-3.42L89,82c-2.54,3.68-7.27,8.93-15.24,8.93C63.5,90.93,58,84.54,58,75.7c0-6.39,4.38-12,10.06-15.5Zm13.22-8.32c2.28-2.19,3-5,3-8.14,0-4.73-1.14-9-6.4-9.11-4.2-.08-6.73,2.37-6.73,7.26,0,3.69,2.71,7.62,8.13,12.7C84.17,59.24,94,69.49,97,73.07c3.67,4.12,6.91,8.32,10.42,11.3a10.23,10.23,0,0,0,6.74,2.37,15.89,15.89,0,0,0,4.64-.71v.62c-1.58,1.74-5.87,4.28-11.56,4.28-7.09,0-10.59-5.77-15.85-11.72C87.06,74,75.42,62.13,72.44,59.5c-4.56-4-7.18-7.7-7.18-13.57s4.81-11.56,13-11.56c6.83,0,11.65,3.51,11.65,8.76,0,4.9-3.86,8-7.88,9.63ZM99.84,69.49A17.15,17.15,0,0,0,102.29,62a5.19,5.19,0,0,0-1.92-4.55c-1.23-1-3.41-1.4-5.87-1.67v-.7h23.21v.7c-7.36,1.06-11.65,5.35-17.34,14.19Z"/><polygon class="cls-1" points="43.55 1.23 25.15 44.17 6.75 1.23 0 1.23 0 54.9 6.98 54.9 6.98 17.48 22.47 54.9 27.83 54.9 43.25 17.48 43.25 54.9 50.3 54.9 50.3 1.23 43.55 1.23"/><path class="cls-1" d="M170.65,38.34a22.51,22.51,0,0,1-3.26,7A23.64,23.64,0,0,1,161.87,51a26.85,26.85,0,0,1-7.4,3.76,28.2,28.2,0,0,1-9,1.38,29,29,0,0,1-11.81-2.3,27.22,27.22,0,0,1-8.86-6.14,26.14,26.14,0,0,1-5.56-8.93,30.89,30.89,0,0,1,0-21.28,27.34,27.34,0,0,1,5.41-8.93A26.27,26.27,0,0,1,144.5,0a31.44,31.44,0,0,1,10.35,1.57,25.14,25.14,0,0,1,7.79,4.26,21.81,21.81,0,0,1,5.25,6.32A26.15,26.15,0,0,1,170.65,20h-7.36a18.3,18.3,0,0,0-2.08-5.44,15.26,15.26,0,0,0-3.75-4.37,17.52,17.52,0,0,0-5.33-2.88,22.76,22.76,0,0,0-15.64.77A19.34,19.34,0,0,0,130,12.92a21.61,21.61,0,0,0-4.06,6.94A23.58,23.58,0,0,0,124.49,28a24.06,24.06,0,0,0,1.45,8.39,20,20,0,0,0,11.12,11.69,23,23,0,0,0,9.28,1.77,17.82,17.82,0,0,0,5.41-.84,18.83,18.83,0,0,0,4.87-2.38A17.62,17.62,0,0,0,160.49,43,15.53,15.53,0,0,0,163,38.34Z"/><path class="cls-1" d="M192.85,49.76a11.48,11.48,0,0,0,8.59-3.64,11.92,11.92,0,0,0,2.38-3.87,13.88,13.88,0,0,0,0-9.51,12.44,12.44,0,0,0-2.38-3.91,11.33,11.33,0,0,0-3.72-2.68,11.53,11.53,0,0,0-4.87-1,11.25,11.25,0,0,0-4.83,1,11,11,0,0,0-3.64,2.68A12.52,12.52,0,0,0,182,32.74a13.88,13.88,0,0,0,0,9.51,12,12,0,0,0,2.34,3.87,11.13,11.13,0,0,0,8.47,3.64m0,6a18.77,18.77,0,0,1-7.51-1.45,17,17,0,0,1-5.75-4,18.15,18.15,0,0,1-3.68-5.83,18.77,18.77,0,0,1-1.31-7,19.07,19.07,0,0,1,1.31-7,18.11,18.11,0,0,1,3.68-5.87,17.07,17.07,0,0,1,5.75-4,18.6,18.6,0,0,1,7.51-1.46,18.82,18.82,0,0,1,7.59,1.46,17.54,17.54,0,0,1,5.79,4A17.88,17.88,0,0,1,210,30.48a19.06,19.06,0,0,1,1.3,7,18.76,18.76,0,0,1-1.3,7,17.92,17.92,0,0,1-3.72,5.83,17.42,17.42,0,0,1-5.79,4,19,19,0,0,1-7.59,1.45"/><path class="cls-1" d="M215.49,50A5.34,5.34,0,0,1,217,46.12a5,5,0,0,1,3.76-1.57,5.28,5.28,0,0,1,3.83,1.57A5.18,5.18,0,0,1,226.22,50a5,5,0,0,1-1.61,3.76,5.36,5.36,0,0,1-3.83,1.53A5.23,5.23,0,0,1,215.49,50"/></g></g></svg>